<?xml version="1.0" encoding="UTF-8"?>
<!-- Generator: Adobe Illustrator 22.0.1, SVG Export Plug-In . SVG Version: 6.00 Build 0)  -->
<svg version="1.1" id="Lager_1" xmlns="http://www.w3.org/2000/svg" xmlns:xlink="http://www.w3.org/1999/xlink" x="0px" y="0px" viewBox="0 0 424.9 92.3" style="enable-background:new 0 0 424.9 92.3;" xml:space="preserve">
<style type="text/css">
	.st0{fill:#FFFFFF;}
</style>
<g>
	<path class="st0" d="M12.5,77.2c0,0.4,0.3,0.7,0.7,0.7h31.2c5,0,9.5-0.7,13.2-2.2c3.7-1.4,6.6-3.5,8.6-6.2c2-2.7,3-5.9,3-9.4   c0-4.1-1.2-7.7-3.5-10.6c-1.7-2.1-3.9-3.7-6.6-4.7c-0.5-0.2-0.9-0.7-0.9-1.3c0-0.6,0.3-1.1,0.8-1.4c2-1,3.8-2.3,5.1-4   c2-2.5,2.9-5.4,2.9-8.7c0-3.3-1-6.1-2.9-8.5c-1.9-2.4-4.7-4.3-8.3-5.6c-3.6-1.3-7.8-2-12.7-2h-30c-0.4,0-0.7,0.3-0.7,0.7V77.2z    M28.8,27.3c0-0.8,0.6-1.4,1.4-1.4h12c0.1,0,0.2,0,0.4,0c2.3,0,4.1,0.5,5.5,1.6c1.5,1.2,2.2,2.8,2.2,4.9c0,2.2-0.7,3.9-2.2,5.1   c-1.4,1.2-3.4,1.8-5.8,1.8h-12c-0.8,0-1.4-0.6-1.4-1.4V27.3z M28.8,52.4c0-0.8,0.6-1.4,1.4-1.4h12c0.1,0,0.3,0,0.4,0   c2.8,0,5.2,0.6,6.9,1.8c1.8,1.3,2.8,3,2.8,5.2c0,2.4-0.9,4.2-2.8,5.5c-1.8,1.3-4.3,1.9-7.3,1.9h-12c-0.8,0-1.4-0.6-1.4-1.4V52.4z"/>
	<path class="st0" d="M202.2,26.1c0.4,0,0.7-0.3,0.7-0.7L203,14c0-0.2-0.1-0.4-0.2-0.5s-0.3-0.2-0.5-0.2h-46.7   c-0.4,0-0.7,0.3-0.7,0.7v63.2c0,0.4,0.3,0.7,0.7,0.7h14.9c0.4,0,0.7-0.3,0.7-0.7V55.7c0-0.8,0.6-1.4,1.4-1.4h27.1   c0.4,0,0.7-0.3,0.7-0.7V42.1c0-0.4-0.3-0.7-0.7-0.7h-27.1c-0.8,0-1.4-0.6-1.4-1.4V27.6c0-0.8,0.6-1.4,1.4-1.4H202.2z"/>
	<path class="st0" d="M249,13.7c-0.1-0.3-0.4-0.4-0.6-0.4h-16.1c-0.3,0-0.5,0.2-0.6,0.4l-27.1,63.2c-0.1,0.2-0.1,0.5,0.1,0.7   c0.1,0.2,0.3,0.3,0.6,0.3h15.2c0.3,0,0.5-0.2,0.6-0.4l4-10.2c0.2-0.6,0.7-0.9,1.3-0.9h26.8c0.6,0,1.1,0.4,1.3,0.9l3.9,10.2   c0.1,0.3,0.4,0.4,0.6,0.4h15.8c0.2,0,0.4-0.1,0.6-0.3c0.1-0.2,0.2-0.4,0.1-0.7L249,13.7z M248.4,53.4c-0.3,0.4-0.7,0.6-1.2,0.6h-15   c-0.5,0-0.9-0.2-1.2-0.6s-0.3-0.9-0.2-1.3l7.6-19.3c0.2-0.6,0.7-0.9,1.3-0.9c0.6,0,1.1,0.4,1.3,0.9l7.4,19.3   C248.7,52.5,248.7,53,248.4,53.4z"/>
	<path class="st0" d="M281.6,51.3c0,5.6,1.2,10.5,3.6,14.7c2.4,4.2,5.9,7.4,10.3,9.7c4.4,2.3,9.7,3.4,15.5,3.4   c5.9,0,11.1-1.1,15.4-3.4c4.4-2.3,7.8-5.5,10.1-9.7c2.4-4.2,3.5-9.1,3.5-14.7V14c0-0.4-0.3-0.7-0.7-0.7h-14.9   c-0.4,0-0.7,0.3-0.7,0.7v37.3c0,4.2-1.2,7.7-3.5,10.2c-2.3,2.5-5.4,3.8-9.2,3.8c-3.8,0-7-1.3-9.5-3.8c-2.5-2.5-3.7-6-3.7-10.1V14   c0-0.4-0.3-0.7-0.7-0.7h-14.9c-0.4,0-0.7,0.3-0.7,0.7V51.3z"/>
	<path class="st0" d="M379.5,58.5c0.5,0,0.9,0.2,1.2,0.6l12.7,18.5c0.1,0.2,0.3,0.3,0.6,0.3h17.8c0.3,0,0.5-0.1,0.6-0.4   c0.1-0.2,0.1-0.5,0-0.7l-21.8-31.8c-0.3-0.5-0.3-1.1,0-1.6l20-28.9c0.1-0.2,0.2-0.5,0-0.7c-0.1-0.2-0.4-0.4-0.6-0.4h-17.5   c-0.2,0-0.4,0.1-0.6,0.3l-11.1,16.7c-0.3,0.4-0.7,0.6-1.2,0.6c-0.5,0-0.9-0.2-1.2-0.7l-11-16.7c-0.1-0.2-0.3-0.3-0.6-0.3h-17.3   c-0.3,0-0.5,0.1-0.6,0.4c-0.1,0.2-0.1,0.5,0,0.7L369,44.1c0.3,0.5,0.3,1.2,0,1.6l-21.6,31c-0.2,0.2-0.2,0.5,0,0.7   c0.1,0.2,0.4,0.4,0.6,0.4h17.3c0.2,0,0.4-0.1,0.6-0.3l12.4-18.5C378.6,58.7,379,58.5,379.5,58.5z"/>
	<path class="st0" d="M139.5,13.6c-0.1-0.2-0.4-0.4-0.6-0.4h-17.5c-0.2,0-0.4,0.1-0.6,0.3l-11.1,16.7c-0.3,0.4-0.7,0.6-1.2,0.6   c-0.5,0-0.9-0.2-1.2-0.7l-11-16.7c-0.1-0.2-0.3-0.3-0.6-0.3H78.5c-0.3,0-0.5,0.1-0.6,0.4c-0.1,0.2-0.1,0.5,0,0.7l20.2,29.8   c0.3,0.5,0.3,1.2,0,1.6l-21.6,31c-0.2,0.2-0.2,0.5,0,0.7c0.1,0.2,0.4,0.4,0.6,0.4h17.3c0.2,0,0.4-0.1,0.6-0.3l44.5-63.2   C139.6,14.1,139.6,13.9,139.5,13.6z"/>
	<path class="st0" d="M129.9,60.1c-0.5-0.6-1.4-0.6-1.9,0l-8.7,12.3c-0.2,0.2-0.2,0.6,0,0.8l2.7,4c0.3,0.4,0.8,0.7,1.3,0.7h4.7h1.7   h4.7c0.5,0,1-0.3,1.3-0.7l2.7-4c0.2-0.2,0.2-0.6,0-0.8L129.9,60.1z"/>
</g>
</svg>